<mxfile host="Electron" modified="2023-12-14T03:08:12.895Z" agent="Mozilla/5.0 (Windows NT 10.0; Win64; x64) AppleWebKit/537.36 (KHTML, like Gecko) draw.io/22.0.3 Chrome/114.0.5735.289 Electron/25.8.4 Safari/537.36" etag="LHcoNcM-NE4fEp28whHs" version="22.1.5" type="device">
  <diagram id="0" name="Page-1">
    <mxGraphModel dx="780" dy="504" grid="1" gridSize="10" guides="1" tooltips="1" connect="1" arrows="1" fold="1" page="1" pageScale="1" pageWidth="1200" pageHeight="1600" math="0" shadow="0">
      <root>
        <mxCell id="0" />
        <mxCell id="1" parent="0" />
        <mxCell id="EUpulSCkN2NA8e2vZoBk-1" value="" style="rounded=1;whiteSpace=wrap;html=1;arcSize=2;strokeWidth=0;shadow=0;fillColor=#647687;strokeColor=#314354;fontColor=#ffffff;" parent="1" vertex="1">
          <mxGeometry x="40" y="40" width="680" height="400" as="geometry" />
        </mxCell>
        <mxCell id="EUpulSCkN2NA8e2vZoBk-3" value="" style="verticalLabelPosition=bottom;verticalAlign=top;html=1;shadow=0;dashed=0;strokeWidth=1;shape=mxgraph.android.keyboard;sketch=0;glass=0;aspect=fixed;" parent="1" vertex="1">
          <mxGeometry x="768" y="295" width="185" height="100" as="geometry" />
        </mxCell>
        <mxCell id="EUpulSCkN2NA8e2vZoBk-10" value="" style="verticalLabelPosition=bottom;verticalAlign=top;html=1;shadow=0;dashed=0;strokeWidth=1;shape=mxgraph.android.phone2;strokeColor=#6D1F00;direction=south;glass=0;sketch=0;fillColor=#a0522d;fontColor=#ffffff;" parent="1" vertex="1">
          <mxGeometry x="40" y="520" width="390" height="200" as="geometry" />
        </mxCell>
        <mxCell id="EUpulSCkN2NA8e2vZoBk-11" value="A" style="shape=stencil(tZXtboMgFIavhr+Gj2n9u7jtPijFSUrBAGu3ux+KLpMW0nWaGA3nyMML5z0KSGM72nOAYQfIC8AYQejvfnyJxtT2nLkQPFMj6F7ykLHO6CO/iIObGEJ13Ag3ZMkrgM/+neEiDdNKeYjQyi4yv/IeRoXyc+FngE3Lfy1GveefuONmEhmiAL/djy3KbcBoI71L7Kx+db3rgZeK0VaFWw2MHseSxkdS5ibNnrLju9Ef6nBTjBn6Ku/3uBnjZr0pKLEsaVpteEZP6GempTY+EJ7jcgATCAlhLH+4rZAyNZuxts3P7unwGblKzOmTPvPUYeG6qKtdDj9TpFBJSl0VFcR/p5SR4VFZPO0S9clxfor6Tz0x59HTifZ1146Y1JZniuzjiToH+wQLpox95d8xGn5kY+Ab);whiteSpace=wrap;html=1;shadow=0;glass=0;sketch=0;strokeWidth=2;aspect=fixed;" parent="1" vertex="1">
          <mxGeometry x="90" y="540" width="40" height="40" as="geometry" />
        </mxCell>
        <mxCell id="EUpulSCkN2NA8e2vZoBk-12" value="汉字" style="shape=stencil(tZXtboMgFIavhr+Gj2n9u7jtPijFSUrBAGu3ux+KLpMW0nWaGA3nyMML5z0KSGM72nOAYQfIC8AYQejvfnyJxtT2nLkQPFMj6F7ykLHO6CO/iIObGEJ13Ag3ZMkrgM/+neEiDdNKeYjQyi4yv/IeRoXyc+FngE3Lfy1GveefuONmEhmiAL/djy3KbcBoI71L7Kx+db3rgZeK0VaFWw2MHseSxkdS5ibNnrLju9Ef6nBTjBn6Ku/3uBnjZr0pKLEsaVpteEZP6GempTY+EJ7jcgATCAlhLH+4rZAyNZuxts3P7unwGblKzOmTPvPUYeG6qKtdDj9TpFBJSl0VFcR/p5SR4VFZPO0S9clxfor6Tz0x59HTifZ1146Y1JZniuzjiToH+wQLpox95d8xGn5kY+Ab);whiteSpace=wrap;html=1;shadow=0;glass=0;sketch=0;strokeWidth=2;aspect=fixed;" parent="1" vertex="1">
          <mxGeometry x="140" y="540" width="40" height="40" as="geometry" />
        </mxCell>
        <mxCell id="EUpulSCkN2NA8e2vZoBk-13" value="" style="shape=stencil(tZXtboMgFIavhr+Gj2n9u7jtPijFSUrBAGu3ux+KLpMW0nWaGA3nyMML5z0KSGM72nOAYQfIC8AYQejvfnyJxtT2nLkQPFMj6F7ykLHO6CO/iIObGEJ13Ag3ZMkrgM/+neEiDdNKeYjQyi4yv/IeRoXyc+FngE3Lfy1GveefuONmEhmiAL/djy3KbcBoI71L7Kx+db3rgZeK0VaFWw2MHseSxkdS5ibNnrLju9Ef6nBTjBn6Ku/3uBnjZr0pKLEsaVpteEZP6GempTY+EJ7jcgATCAlhLH+4rZAyNZuxts3P7unwGblKzOmTPvPUYeG6qKtdDj9TpFBJSl0VFcR/p5SR4VFZPO0S9clxfor6Tz0x59HTifZ1146Y1JZniuzjiToH+wQLpox95d8xGn5kY+Ab);whiteSpace=wrap;html=1;shadow=0;glass=0;sketch=0;strokeWidth=2;aspect=fixed;" parent="1" vertex="1">
          <mxGeometry x="115" y="580" width="40" height="40" as="geometry" />
        </mxCell>
        <mxCell id="EUpulSCkN2NA8e2vZoBk-14" value="图形" style="shape=stencil(tZXtboMgFIavhr+Gj2n9u7jtPijFSUrBAGu3ux+KLpMW0nWaGA3nyMML5z0KSGM72nOAYQfIC8AYQejvfnyJxtT2nLkQPFMj6F7ykLHO6CO/iIObGEJ13Ag3ZMkrgM/+neEiDdNKeYjQyi4yv/IeRoXyc+FngE3Lfy1GveefuONmEhmiAL/djy3KbcBoI71L7Kx+db3rgZeK0VaFWw2MHseSxkdS5ibNnrLju9Ef6nBTjBn6Ku/3uBnjZr0pKLEsaVpteEZP6GempTY+EJ7jcgATCAlhLH+4rZAyNZuxts3P7unwGblKzOmTPvPUYeG6qKtdDj9TpFBJSl0VFcR/p5SR4VFZPO0S9clxfor6Tz0x59HTifZ1146Y1JZniuzjiToH+wQLpox95d8xGn5kY+Ab);whiteSpace=wrap;html=1;shadow=0;glass=0;sketch=0;strokeWidth=2;aspect=fixed;" parent="1" vertex="1">
          <mxGeometry x="190" y="540" width="40" height="40" as="geometry" />
        </mxCell>
        <mxCell id="EUpulSCkN2NA8e2vZoBk-15" value="&lt;font color=&quot;#ff0000&quot;&gt;&lt;b&gt;快捷键&lt;/b&gt;&lt;/font&gt;" style="shape=stencil(tZXtboMgFIavhr+Gj2n9u7jtPijFSUrBAGu3ux+KLpMW0nWaGA3nyMML5z0KSGM72nOAYQfIC8AYQejvfnyJxtT2nLkQPFMj6F7ykLHO6CO/iIObGEJ13Ag3ZMkrgM/+neEiDdNKeYjQyi4yv/IeRoXyc+FngE3Lfy1GveefuONmEhmiAL/djy3KbcBoI71L7Kx+db3rgZeK0VaFWw2MHseSxkdS5ibNnrLju9Ef6nBTjBn6Ku/3uBnjZr0pKLEsaVpteEZP6GempTY+EJ7jcgATCAlhLH+4rZAyNZuxts3P7unwGblKzOmTPvPUYeG6qKtdDj9TpFBJSl0VFcR/p5SR4VFZPO0S9clxfor6Tz0x59HTifZ1146Y1JZniuzjiToH+wQLpox95d8xGn5kY+Ab);whiteSpace=wrap;html=1;shadow=0;glass=0;sketch=0;strokeWidth=2;aspect=fixed;" parent="1" vertex="1">
          <mxGeometry x="240" y="540" width="40" height="40" as="geometry" />
        </mxCell>
        <mxCell id="EUpulSCkN2NA8e2vZoBk-16" value="" style="shape=stencil(tZXtboMgFIavhr+Gj2n9u7jtPijFSUrBAGu3ux+KLpMW0nWaGA3nyMML5z0KSGM72nOAYQfIC8AYQejvfnyJxtT2nLkQPFMj6F7ykLHO6CO/iIObGEJ13Ag3ZMkrgM/+neEiDdNKeYjQyi4yv/IeRoXyc+FngE3Lfy1GveefuONmEhmiAL/djy3KbcBoI71L7Kx+db3rgZeK0VaFWw2MHseSxkdS5ibNnrLju9Ef6nBTjBn6Ku/3uBnjZr0pKLEsaVpteEZP6GempTY+EJ7jcgATCAlhLH+4rZAyNZuxts3P7unwGblKzOmTPvPUYeG6qKtdDj9TpFBJSl0VFcR/p5SR4VFZPO0S9clxfor6Tz0x59HTifZ1146Y1JZniuzjiToH+wQLpox95d8xGn5kY+Ab);whiteSpace=wrap;html=1;shadow=0;glass=0;sketch=0;strokeWidth=2;aspect=fixed;fillColor=#fff2cc;strokeColor=#d6b656;" parent="1" vertex="1">
          <mxGeometry x="290" y="540" width="40" height="40" as="geometry" />
        </mxCell>
        <mxCell id="EUpulSCkN2NA8e2vZoBk-17" value="" style="shape=stencil(tZXtboMgFIavhr+Gj2n9u7jtPijFSUrBAGu3ux+KLpMW0nWaGA3nyMML5z0KSGM72nOAYQfIC8AYQejvfnyJxtT2nLkQPFMj6F7ykLHO6CO/iIObGEJ13Ag3ZMkrgM/+neEiDdNKeYjQyi4yv/IeRoXyc+FngE3Lfy1GveefuONmEhmiAL/djy3KbcBoI71L7Kx+db3rgZeK0VaFWw2MHseSxkdS5ibNnrLju9Ef6nBTjBn6Ku/3uBnjZr0pKLEsaVpteEZP6GempTY+EJ7jcgATCAlhLH+4rZAyNZuxts3P7unwGblKzOmTPvPUYeG6qKtdDj9TpFBJSl0VFcR/p5SR4VFZPO0S9clxfor6Tz0x59HTifZ1146Y1JZniuzjiToH+wQLpox95d8xGn5kY+Ab);whiteSpace=wrap;html=1;shadow=0;glass=0;sketch=0;strokeWidth=2;aspect=fixed;" parent="1" vertex="1">
          <mxGeometry x="340" y="540" width="40" height="40" as="geometry" />
        </mxCell>
        <mxCell id="EUpulSCkN2NA8e2vZoBk-18" value="" style="verticalLabelPosition=bottom;verticalAlign=top;html=1;shadow=0;dashed=0;strokeWidth=1;shape=mxgraph.android.phone2;strokeColor=#b46504;glass=0;sketch=0;fillColor=#fad7ac;" parent="1" vertex="1">
          <mxGeometry x="760" y="40" width="200" height="390" as="geometry" />
        </mxCell>
        <mxCell id="EUpulSCkN2NA8e2vZoBk-20" value="段落" style="shape=stencil(tZXtboMgFIavhr+Gj2n9u7jtPijFSUrBAGu3ux+KLpMW0nWaGA3nyMML5z0KSGM72nOAYQfIC8AYQejvfnyJxtT2nLkQPFMj6F7ykLHO6CO/iIObGEJ13Ag3ZMkrgM/+neEiDdNKeYjQyi4yv/IeRoXyc+FngE3Lfy1GveefuONmEhmiAL/djy3KbcBoI71L7Kx+db3rgZeK0VaFWw2MHseSxkdS5ibNnrLju9Ef6nBTjBn6Ku/3uBnjZr0pKLEsaVpteEZP6GempTY+EJ7jcgATCAlhLH+4rZAyNZuxts3P7unwGblKzOmTPvPUYeG6qKtdDj9TpFBJSl0VFcR/p5SR4VFZPO0S9clxfor6Tz0x59HTifZ1146Y1JZniuzjiToH+wQLpox95d8xGn5kY+Ab);whiteSpace=wrap;html=1;shadow=0;glass=0;sketch=0;strokeWidth=2;aspect=fixed;" parent="1" vertex="1">
          <mxGeometry x="165" y="580" width="40" height="40" as="geometry" />
        </mxCell>
        <mxCell id="EUpulSCkN2NA8e2vZoBk-21" value="" style="shape=stencil(tZXtboMgFIavhr+Gj2n9u7jtPijFSUrBAGu3ux+KLpMW0nWaGA3nyMML5z0KSGM72nOAYQfIC8AYQejvfnyJxtT2nLkQPFMj6F7ykLHO6CO/iIObGEJ13Ag3ZMkrgM/+neEiDdNKeYjQyi4yv/IeRoXyc+FngE3Lfy1GveefuONmEhmiAL/djy3KbcBoI71L7Kx+db3rgZeK0VaFWw2MHseSxkdS5ibNnrLju9Ef6nBTjBn6Ku/3uBnjZr0pKLEsaVpteEZP6GempTY+EJ7jcgATCAlhLH+4rZAyNZuxts3P7unwGblKzOmTPvPUYeG6qKtdDj9TpFBJSl0VFcR/p5SR4VFZPO0S9clxfor6Tz0x59HTifZ1146Y1JZniuzjiToH+wQLpox95d8xGn5kY+Ab);whiteSpace=wrap;html=1;shadow=0;glass=0;sketch=0;strokeWidth=2;aspect=fixed;" parent="1" vertex="1">
          <mxGeometry x="215" y="580" width="40" height="40" as="geometry" />
        </mxCell>
        <mxCell id="EUpulSCkN2NA8e2vZoBk-22" value="图片" style="shape=stencil(tZXtboMgFIavhr+Gj2n9u7jtPijFSUrBAGu3ux+KLpMW0nWaGA3nyMML5z0KSGM72nOAYQfIC8AYQejvfnyJxtT2nLkQPFMj6F7ykLHO6CO/iIObGEJ13Ag3ZMkrgM/+neEiDdNKeYjQyi4yv/IeRoXyc+FngE3Lfy1GveefuONmEhmiAL/djy3KbcBoI71L7Kx+db3rgZeK0VaFWw2MHseSxkdS5ibNnrLju9Ef6nBTjBn6Ku/3uBnjZr0pKLEsaVpteEZP6GempTY+EJ7jcgATCAlhLH+4rZAyNZuxts3P7unwGblKzOmTPvPUYeG6qKtdDj9TpFBJSl0VFcR/p5SR4VFZPO0S9clxfor6Tz0x59HTifZ1146Y1JZniuzjiToH+wQLpox95d8xGn5kY+Ab);whiteSpace=wrap;html=1;shadow=0;glass=0;sketch=0;strokeWidth=2;aspect=fixed;" parent="1" vertex="1">
          <mxGeometry x="265" y="580" width="40" height="40" as="geometry" />
        </mxCell>
        <mxCell id="EUpulSCkN2NA8e2vZoBk-23" value="回车" style="shape=stencil(tZXtboMgFIavhr+Gj2n9u7jtPijFSUrBAGu3ux+KLpMW0nWaGA3nyMML5z0KSGM72nOAYQfIC8AYQejvfnyJxtT2nLkQPFMj6F7ykLHO6CO/iIObGEJ13Ag3ZMkrgM/+neEiDdNKeYjQyi4yv/IeRoXyc+FngE3Lfy1GveefuONmEhmiAL/djy3KbcBoI71L7Kx+db3rgZeK0VaFWw2MHseSxkdS5ibNnrLju9Ef6nBTjBn6Ku/3uBnjZr0pKLEsaVpteEZP6GempTY+EJ7jcgATCAlhLH+4rZAyNZuxts3P7unwGblKzOmTPvPUYeG6qKtdDj9TpFBJSl0VFcR/p5SR4VFZPO0S9clxfor6Tz0x59HTifZ1146Y1JZniuzjiToH+wQLpox95d8xGn5kY+Ab);whiteSpace=wrap;html=1;shadow=0;glass=0;sketch=0;strokeWidth=2;aspect=fixed;" parent="1" vertex="1">
          <mxGeometry x="315" y="580" width="40" height="40" as="geometry" />
        </mxCell>
        <mxCell id="EUpulSCkN2NA8e2vZoBk-24" value="" style="shape=stencil(tZXtboMgFIavhr+Gj2n9u7jtPijFSUrBAGu3ux+KLpMW0nWaGA3nyMML5z0KSGM72nOAYQfIC8AYQejvfnyJxtT2nLkQPFMj6F7ykLHO6CO/iIObGEJ13Ag3ZMkrgM/+neEiDdNKeYjQyi4yv/IeRoXyc+FngE3Lfy1GveefuONmEhmiAL/djy3KbcBoI71L7Kx+db3rgZeK0VaFWw2MHseSxkdS5ibNnrLju9Ef6nBTjBn6Ku/3uBnjZr0pKLEsaVpteEZP6GempTY+EJ7jcgATCAlhLH+4rZAyNZuxts3P7unwGblKzOmTPvPUYeG6qKtdDj9TpFBJSl0VFcR/p5SR4VFZPO0S9clxfor6Tz0x59HTifZ1146Y1JZniuzjiToH+wQLpox95d8xGn5kY+Ab);whiteSpace=wrap;html=1;shadow=0;glass=0;sketch=0;strokeWidth=2;aspect=fixed;" parent="1" vertex="1">
          <mxGeometry x="90" y="620" width="40" height="40" as="geometry" />
        </mxCell>
        <mxCell id="EUpulSCkN2NA8e2vZoBk-25" value="" style="shape=stencil(tZXtboMgFIavhr+Gj2n9u7jtPijFSUrBAGu3ux+KLpMW0nWaGA3nyMML5z0KSGM72nOAYQfIC8AYQejvfnyJxtT2nLkQPFMj6F7ykLHO6CO/iIObGEJ13Ag3ZMkrgM/+neEiDdNKeYjQyi4yv/IeRoXyc+FngE3Lfy1GveefuONmEhmiAL/djy3KbcBoI71L7Kx+db3rgZeK0VaFWw2MHseSxkdS5ibNnrLju9Ef6nBTjBn6Ku/3uBnjZr0pKLEsaVpteEZP6GempTY+EJ7jcgATCAlhLH+4rZAyNZuxts3P7unwGblKzOmTPvPUYeG6qKtdDj9TpFBJSl0VFcR/p5SR4VFZPO0S9clxfor6Tz0x59HTifZ1146Y1JZniuzjiToH+wQLpox95d8xGn5kY+Ab);whiteSpace=wrap;html=1;shadow=0;glass=0;sketch=0;strokeWidth=2;aspect=fixed;" parent="1" vertex="1">
          <mxGeometry x="140" y="620" width="40" height="40" as="geometry" />
        </mxCell>
        <mxCell id="EUpulSCkN2NA8e2vZoBk-26" value="视频" style="shape=stencil(tZXtboMgFIavhr+Gj2n9u7jtPijFSUrBAGu3ux+KLpMW0nWaGA3nyMML5z0KSGM72nOAYQfIC8AYQejvfnyJxtT2nLkQPFMj6F7ykLHO6CO/iIObGEJ13Ag3ZMkrgM/+neEiDdNKeYjQyi4yv/IeRoXyc+FngE3Lfy1GveefuONmEhmiAL/djy3KbcBoI71L7Kx+db3rgZeK0VaFWw2MHseSxkdS5ibNnrLju9Ef6nBTjBn6Ku/3uBnjZr0pKLEsaVpteEZP6GempTY+EJ7jcgATCAlhLH+4rZAyNZuxts3P7unwGblKzOmTPvPUYeG6qKtdDj9TpFBJSl0VFcR/p5SR4VFZPO0S9clxfor6Tz0x59HTifZ1146Y1JZniuzjiToH+wQLpox95d8xGn5kY+Ab);whiteSpace=wrap;html=1;shadow=0;glass=0;sketch=0;strokeWidth=2;aspect=fixed;" parent="1" vertex="1">
          <mxGeometry x="190" y="620" width="40" height="40" as="geometry" />
        </mxCell>
        <mxCell id="EUpulSCkN2NA8e2vZoBk-27" value="语音" style="shape=stencil(tZXtboMgFIavhr+Gj2n9u7jtPijFSUrBAGu3ux+KLpMW0nWaGA3nyMML5z0KSGM72nOAYQfIC8AYQejvfnyJxtT2nLkQPFMj6F7ykLHO6CO/iIObGEJ13Ag3ZMkrgM/+neEiDdNKeYjQyi4yv/IeRoXyc+FngE3Lfy1GveefuONmEhmiAL/djy3KbcBoI71L7Kx+db3rgZeK0VaFWw2MHseSxkdS5ibNnrLju9Ef6nBTjBn6Ku/3uBnjZr0pKLEsaVpteEZP6GempTY+EJ7jcgATCAlhLH+4rZAyNZuxts3P7unwGblKzOmTPvPUYeG6qKtdDj9TpFBJSl0VFcR/p5SR4VFZPO0S9clxfor6Tz0x59HTifZ1146Y1JZniuzjiToH+wQLpox95d8xGn5kY+Ab);whiteSpace=wrap;html=1;shadow=0;glass=0;sketch=0;strokeWidth=2;aspect=fixed;" parent="1" vertex="1">
          <mxGeometry x="240" y="620" width="40" height="40" as="geometry" />
        </mxCell>
        <mxCell id="EUpulSCkN2NA8e2vZoBk-28" value="" style="shape=stencil(tZXtboMgFIavhr+Gj2n9u7jtPijFSUrBAGu3ux+KLpMW0nWaGA3nyMML5z0KSGM72nOAYQfIC8AYQejvfnyJxtT2nLkQPFMj6F7ykLHO6CO/iIObGEJ13Ag3ZMkrgM/+neEiDdNKeYjQyi4yv/IeRoXyc+FngE3Lfy1GveefuONmEhmiAL/djy3KbcBoI71L7Kx+db3rgZeK0VaFWw2MHseSxkdS5ibNnrLju9Ef6nBTjBn6Ku/3uBnjZr0pKLEsaVpteEZP6GempTY+EJ7jcgATCAlhLH+4rZAyNZuxts3P7unwGblKzOmTPvPUYeG6qKtdDj9TpFBJSl0VFcR/p5SR4VFZPO0S9clxfor6Tz0x59HTifZ1146Y1JZniuzjiToH+wQLpox95d8xGn5kY+Ab);whiteSpace=wrap;html=1;shadow=0;glass=0;sketch=0;strokeWidth=2;aspect=fixed;" parent="1" vertex="1">
          <mxGeometry x="290" y="620" width="40" height="40" as="geometry" />
        </mxCell>
        <mxCell id="EUpulSCkN2NA8e2vZoBk-29" value="复制" style="shape=stencil(tZXtboMgFIavhr+Gj2n9u7jtPijFSUrBAGu3ux+KLpMW0nWaGA3nyMML5z0KSGM72nOAYQfIC8AYQejvfnyJxtT2nLkQPFMj6F7ykLHO6CO/iIObGEJ13Ag3ZMkrgM/+neEiDdNKeYjQyi4yv/IeRoXyc+FngE3Lfy1GveefuONmEhmiAL/djy3KbcBoI71L7Kx+db3rgZeK0VaFWw2MHseSxkdS5ibNnrLju9Ef6nBTjBn6Ku/3uBnjZr0pKLEsaVpteEZP6GempTY+EJ7jcgATCAlhLH+4rZAyNZuxts3P7unwGblKzOmTPvPUYeG6qKtdDj9TpFBJSl0VFcR/p5SR4VFZPO0S9clxfor6Tz0x59HTifZ1146Y1JZniuzjiToH+wQLpox95d8xGn5kY+Ab);whiteSpace=wrap;html=1;shadow=0;glass=0;sketch=0;strokeWidth=2;aspect=fixed;" parent="1" vertex="1">
          <mxGeometry x="340" y="620" width="40" height="40" as="geometry" />
        </mxCell>
        <mxCell id="EUpulSCkN2NA8e2vZoBk-30" value="自定义" style="shape=stencil(tZXtboMgFIavhr+Gj2n9u7jtPijFSUrBAGu3ux+KLpMW0nWaGA3nyMML5z0KSGM72nOAYQfIC8AYQejvfnyJxtT2nLkQPFMj6F7ykLHO6CO/iIObGEJ13Ag3ZMkrgM/+neEiDdNKeYjQyi4yv/IeRoXyc+FngE3Lfy1GveefuONmEhmiAL/djy3KbcBoI71L7Kx+db3rgZeK0VaFWw2MHseSxkdS5ibNnrLju9Ef6nBTjBn6Ku/3uBnjZr0pKLEsaVpteEZP6GempTY+EJ7jcgATCAlhLH+4rZAyNZuxts3P7unwGblKzOmTPvPUYeG6qKtdDj9TpFBJSl0VFcR/p5SR4VFZPO0S9clxfor6Tz0x59HTifZ1146Y1JZniuzjiToH+wQLpox95d8xGn5kY+Ab);whiteSpace=wrap;html=1;shadow=0;glass=0;sketch=0;strokeWidth=2;aspect=fixed;" parent="1" vertex="1">
          <mxGeometry x="115" y="660" width="40" height="40" as="geometry" />
        </mxCell>
        <mxCell id="EUpulSCkN2NA8e2vZoBk-31" value="" style="shape=stencil(tZXtboMgFIavhr+Gj2n9u7jtPijFSUrBAGu3ux+KLpMW0nWaGA3nyMML5z0KSGM72nOAYQfIC8AYQejvfnyJxtT2nLkQPFMj6F7ykLHO6CO/iIObGEJ13Ag3ZMkrgM/+neEiDdNKeYjQyi4yv/IeRoXyc+FngE3Lfy1GveefuONmEhmiAL/djy3KbcBoI71L7Kx+db3rgZeK0VaFWw2MHseSxkdS5ibNnrLju9Ef6nBTjBn6Ku/3uBnjZr0pKLEsaVpteEZP6GempTY+EJ7jcgATCAlhLH+4rZAyNZuxts3P7unwGblKzOmTPvPUYeG6qKtdDj9TpFBJSl0VFcR/p5SR4VFZPO0S9clxfor6Tz0x59HTifZ1146Y1JZniuzjiToH+wQLpox95d8xGn5kY+Ab);whiteSpace=wrap;html=1;shadow=0;glass=0;sketch=0;strokeWidth=2;aspect=fixed;" parent="1" vertex="1">
          <mxGeometry x="165" y="660" width="40" height="40" as="geometry" />
        </mxCell>
        <mxCell id="EUpulSCkN2NA8e2vZoBk-32" value="" style="shape=stencil(tZXtboMgFIavhr+Gj2n9u7jtPijFSUrBAGu3ux+KLpMW0nWaGA3nyMML5z0KSGM72nOAYQfIC8AYQejvfnyJxtT2nLkQPFMj6F7ykLHO6CO/iIObGEJ13Ag3ZMkrgM/+neEiDdNKeYjQyi4yv/IeRoXyc+FngE3Lfy1GveefuONmEhmiAL/djy3KbcBoI71L7Kx+db3rgZeK0VaFWw2MHseSxkdS5ibNnrLju9Ef6nBTjBn6Ku/3uBnjZr0pKLEsaVpteEZP6GempTY+EJ7jcgATCAlhLH+4rZAyNZuxts3P7unwGblKzOmTPvPUYeG6qKtdDj9TpFBJSl0VFcR/p5SR4VFZPO0S9clxfor6Tz0x59HTifZ1146Y1JZniuzjiToH+wQLpox95d8xGn5kY+Ab);whiteSpace=wrap;html=1;shadow=0;glass=0;sketch=0;strokeWidth=2;aspect=fixed;" parent="1" vertex="1">
          <mxGeometry x="215" y="660" width="40" height="40" as="geometry" />
        </mxCell>
        <mxCell id="EUpulSCkN2NA8e2vZoBk-33" value="" style="shape=stencil(tZXtboMgFIavhr+Gj2n9u7jtPijFSUrBAGu3ux+KLpMW0nWaGA3nyMML5z0KSGM72nOAYQfIC8AYQejvfnyJxtT2nLkQPFMj6F7ykLHO6CO/iIObGEJ13Ag3ZMkrgM/+neEiDdNKeYjQyi4yv/IeRoXyc+FngE3Lfy1GveefuONmEhmiAL/djy3KbcBoI71L7Kx+db3rgZeK0VaFWw2MHseSxkdS5ibNnrLju9Ef6nBTjBn6Ku/3uBnjZr0pKLEsaVpteEZP6GempTY+EJ7jcgATCAlhLH+4rZAyNZuxts3P7unwGblKzOmTPvPUYeG6qKtdDj9TpFBJSl0VFcR/p5SR4VFZPO0S9clxfor6Tz0x59HTifZ1146Y1JZniuzjiToH+wQLpox95d8xGn5kY+Ab);whiteSpace=wrap;html=1;shadow=0;glass=0;sketch=0;strokeWidth=2;aspect=fixed;" parent="1" vertex="1">
          <mxGeometry x="265" y="660" width="40" height="40" as="geometry" />
        </mxCell>
        <mxCell id="EUpulSCkN2NA8e2vZoBk-34" value="粘贴" style="shape=stencil(tZXtboMgFIavhr+Gj2n9u7jtPijFSUrBAGu3ux+KLpMW0nWaGA3nyMML5z0KSGM72nOAYQfIC8AYQejvfnyJxtT2nLkQPFMj6F7ykLHO6CO/iIObGEJ13Ag3ZMkrgM/+neEiDdNKeYjQyi4yv/IeRoXyc+FngE3Lfy1GveefuONmEhmiAL/djy3KbcBoI71L7Kx+db3rgZeK0VaFWw2MHseSxkdS5ibNnrLju9Ef6nBTjBn6Ku/3uBnjZr0pKLEsaVpteEZP6GempTY+EJ7jcgATCAlhLH+4rZAyNZuxts3P7unwGblKzOmTPvPUYeG6qKtdDj9TpFBJSl0VFcR/p5SR4VFZPO0S9clxfor6Tz0x59HTifZ1146Y1JZniuzjiToH+wQLpox95d8xGn5kY+Ab);whiteSpace=wrap;html=1;shadow=0;glass=0;sketch=0;strokeWidth=2;aspect=fixed;" parent="1" vertex="1">
          <mxGeometry x="315" y="660" width="40" height="40" as="geometry" />
        </mxCell>
        <mxCell id="NmdxITTfCorPuQKN51Er-3" value="" style="rounded=0;whiteSpace=wrap;html=1;strokeColor=none;strokeWidth=0;fillColor=#FFFFFF;" parent="1" vertex="1">
          <mxGeometry x="50" y="50" width="660" height="380" as="geometry" />
        </mxCell>
        <mxCell id="NmdxITTfCorPuQKN51Er-4" value="" style="rounded=0;whiteSpace=wrap;html=1;shadow=0;strokeColor=#3700CC;strokeWidth=0;fillColor=#000000;fontColor=#ffffff;opacity=50;" parent="1" vertex="1">
          <mxGeometry x="50" y="390" width="660" height="40" as="geometry" />
        </mxCell>
        <mxCell id="NmdxITTfCorPuQKN51Er-8" value="" style="shape=image;imageAspect=0;aspect=fixed;verticalLabelPosition=bottom;verticalAlign=top;shadow=0;fillStyle=solid;strokeColor=default;strokeWidth=0;fillColor=#000000;image=data:image/svg+xml,PHN2ZyB4bWxucz0iaHR0cDovL3d3dy53My5vcmcvMjAwMC9zdmciIGlkPSJzdmc2IiB2ZXJzaW9uPSIxLjEiIHZpZXdCb3g9IjAgMCAzMiAzMiIgaGVpZ2h0PSI4MDBweCIgd2lkdGg9IjgwMHB4IiBmaWxsPSIjMDAwMDAwIj4mI3hhOyAgPGRlZnMgaWQ9ImRlZnMxMCIvPiYjeGE7ICAmI3hhOyAgPHRpdGxlIGlkPSJ0aXRsZTIiPndpbmRvd3M8L3RpdGxlPiYjeGE7ICA8cGF0aCBzdHlsZT0iZmlsbDojZmZmZmZmIiBpZD0icGF0aDQiIGQ9Ik0xNC42ODcgMTYuNzVoMTYuMzA5djE0LjI0NmwtMTYuMTItMi4yNTF6TTEuMDA0IDE2Ljc1aDEyLjE4NHYxMS44MWwtMTIuMTg0LTEuNjl6TTE0LjY4NyAzLjQ0bDE2LjMwOS0yLjQzNnYxNC4yNDZoLTE2LjMwOXpNMS4wMDQgNS4zMTRsMTIuMTg0LTEuNjg2djExLjgxaC0xMi4xODR6Ii8+JiN4YTs8L3N2Zz4=;" parent="1" vertex="1">
          <mxGeometry x="56" y="395" width="30" height="30" as="geometry" />
        </mxCell>
        <mxCell id="NmdxITTfCorPuQKN51Er-9" value="&lt;font style=&quot;font-size: 16px;&quot; color=&quot;#ffffff&quot;&gt;中&lt;/font&gt;" style="text;html=1;strokeColor=none;fillColor=none;align=center;verticalAlign=middle;whiteSpace=wrap;rounded=0;" parent="1" vertex="1">
          <mxGeometry x="600" y="390" width="40" height="40" as="geometry" />
        </mxCell>
        <mxCell id="NmdxITTfCorPuQKN51Er-11" value="&lt;font style=&quot;font-size: 13px;&quot;&gt;8:08&lt;/font&gt;" style="text;html=1;strokeColor=none;fillColor=none;align=center;verticalAlign=middle;whiteSpace=wrap;rounded=0;fontSize=16;fontColor=#FFFFFF;" parent="1" vertex="1">
          <mxGeometry x="649" y="395" width="40" height="20" as="geometry" />
        </mxCell>
        <mxCell id="NmdxITTfCorPuQKN51Er-12" value="&lt;font style=&quot;font-size: 13px;&quot;&gt;2023.2.14&lt;/font&gt;" style="text;html=1;strokeColor=none;fillColor=none;align=center;verticalAlign=middle;whiteSpace=wrap;rounded=0;fontSize=16;fontColor=#FFFFFF;" parent="1" vertex="1">
          <mxGeometry x="630" y="410" width="80" height="20" as="geometry" />
        </mxCell>
        <mxCell id="NmdxITTfCorPuQKN51Er-14" value="" style="shape=image;imageAspect=0;aspect=fixed;verticalLabelPosition=bottom;verticalAlign=top;shadow=0;fillStyle=solid;strokeColor=default;strokeWidth=0;fontSize=13;fontColor=#FFFFFF;fillColor=#000000;image=data:image/svg+xml,PHN2ZyB4bWxucz0iaHR0cDovL3d3dy53My5vcmcvMjAwMC9zdmciIGlkPSJzdmcxMCIgdmVyc2lvbj0iMS4xIiBmaWxsPSJub25lIiB2aWV3Qm94PSIwIDAgMTYgMTYiIGhlaWdodD0iODAwcHgiIHdpZHRoPSI4MDBweCI+JiN4YTsgIDxkZWZzIGlkPSJkZWZzMTQiPiYjeGE7ICAgIDxyZWN0IGlkPSJyZWN0MjkyIiBoZWlnaHQ9IjI0NC40NDQ0NCIgd2lkdGg9IjE2Ny42NzY3NyIgeT0iMjcxLjcxNzE3IiB4PSIyNDkuNDk0OTUiLz4mI3hhOyAgPC9kZWZzPiYjeGE7ICAmI3hhOyAgPGcgaWQ9Imc4IiBmaWxsPSIjMDAwMDAwIj4mI3hhOyAgICA8cGF0aCBzdHlsZT0iZmlsbDojYWEwMDAwIiBpZD0icGF0aDIiIGQ9Ik04LjA4OCAxMi4wOThsMy4xODUtMS44MWEuMTc4LjE3OCAwIDAxLjE3NiAwbDIuODQzIDEuNjE1YS4xNzIuMTcyIDAgMDEwIC4zbC02LjIwNCAzLjUyNGEuMTc4LjE3OCAwIDAxLS4xNzYgMEwxLjA4OCAxMS44NUEuMTczLjE3MyAwIDAxMSAxMS43VjMuOTQ3YzAtLjA2MS4wMzMtLjExOC4wODgtLjE1TDcuMjkyLjI3NGEuMTc2LjE3NiAwIDAxLjI2NC4xNXYzLjIzYS4xNzIuMTcyIDAgMDEtLjA4OC4xNWwtMy4xODYgMS44MWEuMTczLjE3MyAwIDAwLS4wODguMTQ5djQuMTI0YzAgLjA2Mi4wMzQuMTE5LjA4OC4xNWwzLjYzIDIuMDYyYy4wNTQuMDMuMTIyLjAzLjE3NiAweiIvPiYjeGE7ICAgIDxwYXRoIHN0eWxlPSJmaWxsOiNmZjAwMDAiIGlkPSJwYXRoNCIgZD0iTTguNTMyIDMuODAzbDMuMTg2IDEuODFhLjE3My4xNzMgMCAwMS4wODguMTQ5djMuNjJjMCAuMDYuMDMzLjExOC4wODguMTQ5bDIuODQyIDEuNjE1YS4xNzYuMTc2IDAgMDAuMjY0LS4xNVYzLjk0N2EuMTczLjE3MyAwIDAwLS4wODgtLjE1TDguNzA4LjI3NGEuMTc2LjE3NiAwIDAwLS4yNjQuMTV2My4yM2MwIC4wNjIuMDM0LjExOS4wODguMTV6Ii8+JiN4YTsgICAgPGcgc3R5bGU9ImZvbnQtc2l6ZToxOTJweDt3aGl0ZS1zcGFjZTpwcmU7c2hhcGUtaW5zaWRlOnVybCgjcmVjdDI5Mik7ZmlsbDojMDBmZjAwIiBpZD0idGV4dDI5MCIgdHJhbnNmb3JtPSJzY2FsZSgwLjAyKSIgYXJpYS1sYWJlbD0iQSI+JiN4YTsgICAgICA8cGF0aCBpZD0icGF0aDM5OCIgc3R5bGU9ImZvbnQtd2VpZ2h0OmJvbGQ7Zm9udC1mYW1pbHk6QXJpYWw7LWlua3NjYXBlLWZvbnQtc3BlY2lmaWNhdGlvbjonQXJpYWwgQm9sZCc7ZmlsbDojMDBmZjAwO3N0cm9rZS13aWR0aDoxLjY1MzMxIiBkPSJtIDUxNCw0ODQuMTQ2NDkgaCAtNDkuOTA4OSBsIC0xOS44Mzk1OCwtNTEuNjEzODYgaCAtOTAuODI4MDEgbCAtMTguNzU0NTksNTEuNjEzODYgSCAyODYgbCA4OC41MDMwNywtMjI3LjIyNTAyIGggNDguNTEzOTQgeiBtIC04NC40NzMxNiwtODkuODk4MDMgLTMxLjMwOTMxLC04NC4zMTgxNSAtMzAuNjg5MzEsODQuMzE4MTUgeiIvPiYjeGE7ICAgIDwvZz4mI3hhOyAgPC9nPiYjeGE7PC9zdmc+;" parent="1" vertex="1">
          <mxGeometry x="530" y="395" width="30" height="30" as="geometry" />
        </mxCell>
        <mxCell id="NmdxITTfCorPuQKN51Er-16" value="" style="rounded=0;whiteSpace=wrap;html=1;shadow=0;fillStyle=solid;strokeColor=#36393d;strokeWidth=0;fontSize=13;fillColor=#eeeeee;" parent="1" vertex="1">
          <mxGeometry x="180" y="130" width="310" height="190" as="geometry" />
        </mxCell>
        <mxCell id="NmdxITTfCorPuQKN51Er-17" value="" style="rounded=0;whiteSpace=wrap;html=1;shadow=0;fillStyle=solid;strokeColor=#001DBC;strokeWidth=0;fontSize=13;fillColor=#2B63FC;fontColor=#ffffff;opacity=90;" parent="1" vertex="1">
          <mxGeometry x="180" y="130" width="310" height="30" as="geometry" />
        </mxCell>
        <mxCell id="NmdxITTfCorPuQKN51Er-18" value="" style="rounded=0;whiteSpace=wrap;html=1;shadow=0;fillStyle=solid;strokeWidth=0;fontSize=13;opacity=90;align=left;" parent="1" vertex="1">
          <mxGeometry x="190" y="170" width="290" height="100" as="geometry" />
        </mxCell>
        <mxCell id="NmdxITTfCorPuQKN51Er-19" value="确定" style="rounded=1;whiteSpace=wrap;html=1;shadow=0;fillStyle=solid;strokeColor=#23445d;strokeWidth=0;fontSize=13;fillColor=#bac8d3;opacity=90;" parent="1" vertex="1">
          <mxGeometry x="420" y="280" width="60" height="30" as="geometry" />
        </mxCell>
        <mxCell id="NmdxITTfCorPuQKN51Er-21" value="&lt;h1&gt;段落输入&lt;/h1&gt;&lt;p&gt;您的手机或平板电脑，可以做PC电脑的键盘。&lt;b&gt;|&lt;/b&gt;&lt;/p&gt;" style="text;html=1;strokeColor=none;fillColor=none;spacing=5;spacingTop=-20;whiteSpace=wrap;overflow=hidden;rounded=0;fontSize=13;fontColor=#000000;" parent="1" vertex="1">
          <mxGeometry x="190" y="170" width="290" height="100" as="geometry" />
        </mxCell>
        <mxCell id="NmdxITTfCorPuQKN51Er-22" value="汉字" style="shape=stencil(tZXtboMgFIavhr+Gj2n9u7jtPijFSUrBAGu3ux+KLpMW0nWaGA3nyMML5z0KSGM72nOAYQfIC8AYQejvfnyJxtT2nLkQPFMj6F7ykLHO6CO/iIObGEJ13Ag3ZMkrgM/+neEiDdNKeYjQyi4yv/IeRoXyc+FngE3Lfy1GveefuONmEhmiAL/djy3KbcBoI71L7Kx+db3rgZeK0VaFWw2MHseSxkdS5ibNnrLju9Ef6nBTjBn6Ku/3uBnjZr0pKLEsaVpteEZP6GempTY+EJ7jcgATCAlhLH+4rZAyNZuxts3P7unwGblKzOmTPvPUYeG6qKtdDj9TpFBJSl0VFcR/p5SR4VFZPO0S9clxfor6Tz0x59HTifZ1146Y1JZniuzjiToH+wQLpox95d8xGn5kY+Ab);whiteSpace=wrap;html=1;shadow=0;glass=0;sketch=0;strokeWidth=2;aspect=fixed;" parent="1" vertex="1">
          <mxGeometry x="778" y="90" width="40" height="40" as="geometry" />
        </mxCell>
        <mxCell id="NmdxITTfCorPuQKN51Er-23" value="图形" style="shape=stencil(tZXtboMgFIavhr+Gj2n9u7jtPijFSUrBAGu3ux+KLpMW0nWaGA3nyMML5z0KSGM72nOAYQfIC8AYQejvfnyJxtT2nLkQPFMj6F7ykLHO6CO/iIObGEJ13Ag3ZMkrgM/+neEiDdNKeYjQyi4yv/IeRoXyc+FngE3Lfy1GveefuONmEhmiAL/djy3KbcBoI71L7Kx+db3rgZeK0VaFWw2MHseSxkdS5ibNnrLju9Ef6nBTjBn6Ku/3uBnjZr0pKLEsaVpteEZP6GempTY+EJ7jcgATCAlhLH+4rZAyNZuxts3P7unwGblKzOmTPvPUYeG6qKtdDj9TpFBJSl0VFcR/p5SR4VFZPO0S9clxfor6Tz0x59HTifZ1146Y1JZniuzjiToH+wQLpox95d8xGn5kY+Ab);whiteSpace=wrap;html=1;shadow=0;glass=0;sketch=0;strokeWidth=2;aspect=fixed;" parent="1" vertex="1">
          <mxGeometry x="828" y="90" width="40" height="40" as="geometry" />
        </mxCell>
        <mxCell id="NmdxITTfCorPuQKN51Er-24" value="&lt;font color=&quot;#ff0000&quot;&gt;&lt;b&gt;快捷键&lt;/b&gt;&lt;/font&gt;" style="shape=stencil(tZXtboMgFIavhr+Gj2n9u7jtPijFSUrBAGu3ux+KLpMW0nWaGA3nyMML5z0KSGM72nOAYQfIC8AYQejvfnyJxtT2nLkQPFMj6F7ykLHO6CO/iIObGEJ13Ag3ZMkrgM/+neEiDdNKeYjQyi4yv/IeRoXyc+FngE3Lfy1GveefuONmEhmiAL/djy3KbcBoI71L7Kx+db3rgZeK0VaFWw2MHseSxkdS5ibNnrLju9Ef6nBTjBn6Ku/3uBnjZr0pKLEsaVpteEZP6GempTY+EJ7jcgATCAlhLH+4rZAyNZuxts3P7unwGblKzOmTPvPUYeG6qKtdDj9TpFBJSl0VFcR/p5SR4VFZPO0S9clxfor6Tz0x59HTifZ1146Y1JZniuzjiToH+wQLpox95d8xGn5kY+Ab);whiteSpace=wrap;html=1;shadow=0;glass=0;sketch=0;strokeWidth=2;aspect=fixed;" parent="1" vertex="1">
          <mxGeometry x="878" y="90" width="40" height="40" as="geometry" />
        </mxCell>
        <mxCell id="NmdxITTfCorPuQKN51Er-25" value="段落" style="shape=stencil(tZXtboMgFIavhr+Gj2n9u7jtPijFSUrBAGu3ux+KLpMW0nWaGA3nyMML5z0KSGM72nOAYQfIC8AYQejvfnyJxtT2nLkQPFMj6F7ykLHO6CO/iIObGEJ13Ag3ZMkrgM/+neEiDdNKeYjQyi4yv/IeRoXyc+FngE3Lfy1GveefuONmEhmiAL/djy3KbcBoI71L7Kx+db3rgZeK0VaFWw2MHseSxkdS5ibNnrLju9Ef6nBTjBn6Ku/3uBnjZr0pKLEsaVpteEZP6GempTY+EJ7jcgATCAlhLH+4rZAyNZuxts3P7unwGblKzOmTPvPUYeG6qKtdDj9TpFBJSl0VFcR/p5SR4VFZPO0S9clxfor6Tz0x59HTifZ1146Y1JZniuzjiToH+wQLpox95d8xGn5kY+Ab);whiteSpace=wrap;html=1;shadow=0;glass=0;sketch=0;strokeWidth=2;aspect=fixed;" parent="1" vertex="1">
          <mxGeometry x="803" y="130" width="40" height="40" as="geometry" />
        </mxCell>
        <mxCell id="NmdxITTfCorPuQKN51Er-26" value="" style="shape=stencil(tZXtboMgFIavhr+Gj2n9u7jtPijFSUrBAGu3ux+KLpMW0nWaGA3nyMML5z0KSGM72nOAYQfIC8AYQejvfnyJxtT2nLkQPFMj6F7ykLHO6CO/iIObGEJ13Ag3ZMkrgM/+neEiDdNKeYjQyi4yv/IeRoXyc+FngE3Lfy1GveefuONmEhmiAL/djy3KbcBoI71L7Kx+db3rgZeK0VaFWw2MHseSxkdS5ibNnrLju9Ef6nBTjBn6Ku/3uBnjZr0pKLEsaVpteEZP6GempTY+EJ7jcgATCAlhLH+4rZAyNZuxts3P7unwGblKzOmTPvPUYeG6qKtdDj9TpFBJSl0VFcR/p5SR4VFZPO0S9clxfor6Tz0x59HTifZ1146Y1JZniuzjiToH+wQLpox95d8xGn5kY+Ab);whiteSpace=wrap;html=1;shadow=0;glass=0;sketch=0;strokeWidth=2;aspect=fixed;" parent="1" vertex="1">
          <mxGeometry x="853" y="130" width="40" height="40" as="geometry" />
        </mxCell>
        <mxCell id="NmdxITTfCorPuQKN51Er-27" value="图片" style="shape=stencil(tZXtboMgFIavhr+Gj2n9u7jtPijFSUrBAGu3ux+KLpMW0nWaGA3nyMML5z0KSGM72nOAYQfIC8AYQejvfnyJxtT2nLkQPFMj6F7ykLHO6CO/iIObGEJ13Ag3ZMkrgM/+neEiDdNKeYjQyi4yv/IeRoXyc+FngE3Lfy1GveefuONmEhmiAL/djy3KbcBoI71L7Kx+db3rgZeK0VaFWw2MHseSxkdS5ibNnrLju9Ef6nBTjBn6Ku/3uBnjZr0pKLEsaVpteEZP6GempTY+EJ7jcgATCAlhLH+4rZAyNZuxts3P7unwGblKzOmTPvPUYeG6qKtdDj9TpFBJSl0VFcR/p5SR4VFZPO0S9clxfor6Tz0x59HTifZ1146Y1JZniuzjiToH+wQLpox95d8xGn5kY+Ab);whiteSpace=wrap;html=1;shadow=0;glass=0;sketch=0;strokeWidth=2;aspect=fixed;" parent="1" vertex="1">
          <mxGeometry x="903" y="130" width="40" height="40" as="geometry" />
        </mxCell>
        <mxCell id="NmdxITTfCorPuQKN51Er-28" value="" style="shape=stencil(tZXtboMgFIavhr+Gj2n9u7jtPijFSUrBAGu3ux+KLpMW0nWaGA3nyMML5z0KSGM72nOAYQfIC8AYQejvfnyJxtT2nLkQPFMj6F7ykLHO6CO/iIObGEJ13Ag3ZMkrgM/+neEiDdNKeYjQyi4yv/IeRoXyc+FngE3Lfy1GveefuONmEhmiAL/djy3KbcBoI71L7Kx+db3rgZeK0VaFWw2MHseSxkdS5ibNnrLju9Ef6nBTjBn6Ku/3uBnjZr0pKLEsaVpteEZP6GempTY+EJ7jcgATCAlhLH+4rZAyNZuxts3P7unwGblKzOmTPvPUYeG6qKtdDj9TpFBJSl0VFcR/p5SR4VFZPO0S9clxfor6Tz0x59HTifZ1146Y1JZniuzjiToH+wQLpox95d8xGn5kY+Ab);whiteSpace=wrap;html=1;shadow=0;glass=0;sketch=0;strokeWidth=2;aspect=fixed;" parent="1" vertex="1">
          <mxGeometry x="778" y="170" width="40" height="40" as="geometry" />
        </mxCell>
        <mxCell id="NmdxITTfCorPuQKN51Er-29" value="视频" style="shape=stencil(tZXtboMgFIavhr+Gj2n9u7jtPijFSUrBAGu3ux+KLpMW0nWaGA3nyMML5z0KSGM72nOAYQfIC8AYQejvfnyJxtT2nLkQPFMj6F7ykLHO6CO/iIObGEJ13Ag3ZMkrgM/+neEiDdNKeYjQyi4yv/IeRoXyc+FngE3Lfy1GveefuONmEhmiAL/djy3KbcBoI71L7Kx+db3rgZeK0VaFWw2MHseSxkdS5ibNnrLju9Ef6nBTjBn6Ku/3uBnjZr0pKLEsaVpteEZP6GempTY+EJ7jcgATCAlhLH+4rZAyNZuxts3P7unwGblKzOmTPvPUYeG6qKtdDj9TpFBJSl0VFcR/p5SR4VFZPO0S9clxfor6Tz0x59HTifZ1146Y1JZniuzjiToH+wQLpox95d8xGn5kY+Ab);whiteSpace=wrap;html=1;shadow=0;glass=0;sketch=0;strokeWidth=2;aspect=fixed;" parent="1" vertex="1">
          <mxGeometry x="828" y="170" width="40" height="40" as="geometry" />
        </mxCell>
        <mxCell id="NmdxITTfCorPuQKN51Er-30" value="语音" style="shape=stencil(tZXtboMgFIavhr+Gj2n9u7jtPijFSUrBAGu3ux+KLpMW0nWaGA3nyMML5z0KSGM72nOAYQfIC8AYQejvfnyJxtT2nLkQPFMj6F7ykLHO6CO/iIObGEJ13Ag3ZMkrgM/+neEiDdNKeYjQyi4yv/IeRoXyc+FngE3Lfy1GveefuONmEhmiAL/djy3KbcBoI71L7Kx+db3rgZeK0VaFWw2MHseSxkdS5ibNnrLju9Ef6nBTjBn6Ku/3uBnjZr0pKLEsaVpteEZP6GempTY+EJ7jcgATCAlhLH+4rZAyNZuxts3P7unwGblKzOmTPvPUYeG6qKtdDj9TpFBJSl0VFcR/p5SR4VFZPO0S9clxfor6Tz0x59HTifZ1146Y1JZniuzjiToH+wQLpox95d8xGn5kY+Ab);whiteSpace=wrap;html=1;shadow=0;glass=0;sketch=0;strokeWidth=2;aspect=fixed;" parent="1" vertex="1">
          <mxGeometry x="878" y="170" width="40" height="40" as="geometry" />
        </mxCell>
        <mxCell id="NmdxITTfCorPuQKN51Er-31" value="" style="shape=stencil(tZXtboMgFIavhr+Gj2n9u7jtPijFSUrBAGu3ux+KLpMW0nWaGA3nyMML5z0KSGM72nOAYQfIC8AYQejvfnyJxtT2nLkQPFMj6F7ykLHO6CO/iIObGEJ13Ag3ZMkrgM/+neEiDdNKeYjQyi4yv/IeRoXyc+FngE3Lfy1GveefuONmEhmiAL/djy3KbcBoI71L7Kx+db3rgZeK0VaFWw2MHseSxkdS5ibNnrLju9Ef6nBTjBn6Ku/3uBnjZr0pKLEsaVpteEZP6GempTY+EJ7jcgATCAlhLH+4rZAyNZuxts3P7unwGblKzOmTPvPUYeG6qKtdDj9TpFBJSl0VFcR/p5SR4VFZPO0S9clxfor6Tz0x59HTifZ1146Y1JZniuzjiToH+wQLpox95d8xGn5kY+Ab);whiteSpace=wrap;html=1;shadow=0;glass=0;sketch=0;strokeWidth=2;aspect=fixed;" parent="1" vertex="1">
          <mxGeometry x="803" y="210" width="40" height="40" as="geometry" />
        </mxCell>
        <mxCell id="NmdxITTfCorPuQKN51Er-32" value="" style="shape=stencil(tZXtboMgFIavhr+Gj2n9u7jtPijFSUrBAGu3ux+KLpMW0nWaGA3nyMML5z0KSGM72nOAYQfIC8AYQejvfnyJxtT2nLkQPFMj6F7ykLHO6CO/iIObGEJ13Ag3ZMkrgM/+neEiDdNKeYjQyi4yv/IeRoXyc+FngE3Lfy1GveefuONmEhmiAL/djy3KbcBoI71L7Kx+db3rgZeK0VaFWw2MHseSxkdS5ibNnrLju9Ef6nBTjBn6Ku/3uBnjZr0pKLEsaVpteEZP6GempTY+EJ7jcgATCAlhLH+4rZAyNZuxts3P7unwGblKzOmTPvPUYeG6qKtdDj9TpFBJSl0VFcR/p5SR4VFZPO0S9clxfor6Tz0x59HTifZ1146Y1JZniuzjiToH+wQLpox95d8xGn5kY+Ab);whiteSpace=wrap;html=1;shadow=0;glass=0;sketch=0;strokeWidth=2;aspect=fixed;" parent="1" vertex="1">
          <mxGeometry x="853" y="210" width="40" height="40" as="geometry" />
        </mxCell>
        <mxCell id="NmdxITTfCorPuQKN51Er-33" value="" style="shape=stencil(tZXtboMgFIavhr+Gj2n9u7jtPijFSUrBAGu3ux+KLpMW0nWaGA3nyMML5z0KSGM72nOAYQfIC8AYQejvfnyJxtT2nLkQPFMj6F7ykLHO6CO/iIObGEJ13Ag3ZMkrgM/+neEiDdNKeYjQyi4yv/IeRoXyc+FngE3Lfy1GveefuONmEhmiAL/djy3KbcBoI71L7Kx+db3rgZeK0VaFWw2MHseSxkdS5ibNnrLju9Ef6nBTjBn6Ku/3uBnjZr0pKLEsaVpteEZP6GempTY+EJ7jcgATCAlhLH+4rZAyNZuxts3P7unwGblKzOmTPvPUYeG6qKtdDj9TpFBJSl0VFcR/p5SR4VFZPO0S9clxfor6Tz0x59HTifZ1146Y1JZniuzjiToH+wQLpox95d8xGn5kY+Ab);whiteSpace=wrap;html=1;shadow=0;glass=0;sketch=0;strokeWidth=2;aspect=fixed;" parent="1" vertex="1">
          <mxGeometry x="903" y="210" width="40" height="40" as="geometry" />
        </mxCell>
        <mxCell id="NmdxITTfCorPuQKN51Er-34" value="" style="shape=image;imageAspect=0;aspect=fixed;verticalLabelPosition=bottom;verticalAlign=top;shadow=0;fillStyle=solid;strokeColor=default;strokeWidth=0;fontSize=13;fontColor=#FF0000;fillColor=none;opacity=90;image=data:image/svg+xml,PHN2ZyB4bWxuczp4bGluaz0iaHR0cDovL3d3dy53My5vcmcvMTk5OS94bGluayIgeG1sbnM9Imh0dHA6Ly93d3cudzMub3JnLzIwMDAvc3ZnIiB4bWw6c3BhY2U9InByZXNlcnZlIiB2aWV3Qm94PSIwIDAgMzUuODU5IDQ1Ljc1OSIgaGVpZ2h0PSI0NS43NTlweCIgd2lkdGg9IjM1Ljg1OXB4IiB5PSIwcHgiIHg9IjBweCIgaWQ9IuWbvuWxgl8xIiB2ZXJzaW9uPSIxLjEiPiYjeGE7PHBvbHlsaW5lIHBvaW50cz0iMTMuOTg3LDQyLjk4OSAyNi4wNDIsNDUuNTIxIDM1LjAzNSwyOS44MzkgMzQuMzI3LDI2LjYzMSAzMS41NzcsMjYuMzM5IDMwLjc0NCwyMy44ODEgJiMxMDsmIzk7MjcuMjg1LDIzLjU4OCAyNi4yNDQsMjEuNDIzIDIyLjc0NCwyMS4xNzMgMjUuOTExLDEwLjU5NiAyMy43ODYsOC45NSAyMS42NjEsMTAuMTM3IDE1LjI4NiwyOS4zNyAxMi4zNjksMjguMDU0IDEwLjQ5MywyNC42NzkgJiMxMDsmIzk7OC4zNjksMjMuMDEzIDYuNjYsMjUuMDk2IDguNjE5LDM1LjEzOCAxMi4zNjksMzkuMDk2IiBmaWxsPSIjRThDOEJFIi8+JiN4YTs8cGF0aCBkPSJNMjcuMzc1LDI3LjA4NWwtMS45MjgtMC41MzJsMC43OTEtMi44NjRjMC4wOS0wLjMyNCwwLjA0Ny0wLjY2NS0wLjExOS0wLjk1OHMtMC40MzctMC41MDQtMC43NjItMC41OTQmIzEwOyYjOTtjLTAuNjctMC4xODUtMS4zNjcsMC4yMS0xLjU1MywwLjg4bC0xLjIxOSwzLjY1OGwtMS44OTctMC42MzNsMS4yMDQtMy42MDdjMC40NjMtMS42ODQsMi4yNTgtMi43MDMsMy45OTgtMi4yMjYmIzEwOyYjOTtjMS43MzMsMC40NzksMi43NTQsMi4yNzgsMi4yNzUsNC4wMTNMMjcuMzc1LDI3LjA4NXoiIGZpbGw9IiMzMDMyMzIiLz4mI3hhOzxwYXRoIGQ9Ik0zMS40MzgsMjkuMzdsLTEuOTI4LTAuNTMxbDAuODg5LTMuMjE5YzAuMDktMC4zMjUsMC4wNDctMC42NjYtMC4xMTktMC45NTlzLTAuNDM3LTAuNTA0LTAuNzYyLTAuNTk0JiMxMDsmIzk7Yy0wLjMyNi0wLjA4OS0wLjY2NS0wLjA0Ny0wLjk1OSwwLjExOWMtMC4yOTMsMC4xNjYtMC41MDQsMC40MzctMC41OTQsMC43NjJsLTAuODAzLDIuOTA2bC0xLjkyOC0wLjUzMWwwLjgwMy0yLjkwOCYjMTA7JiM5O2MwLjIzMi0wLjg0LDAuNzc3LTEuNTM5LDEuNTM1LTEuOTY5czEuNjM3LTAuNTM5LDIuNDc4LTAuMzA3YzAuODQsMC4yMzIsMS41NCwwLjc3NywxLjk3LDEuNTM1czAuNTM5LDEuNjM3LDAuMzA3LDIuNDc3JiMxMDsmIzk7TDMxLjQzOCwyOS4zN3oiIGZpbGw9IiMzMDMyMzIiLz4mI3hhOzxwYXRoIGQ9Ik0yNS4xMTIsMTUuMDUxbC0wLjU5OC0xLjkwOGwwLjk1My0wLjI5OWMxLjA2OC0wLjMzNSwxLjkzMi0xLjA3LDIuNDM0LTIuMDY5JiMxMDsmIzk7YzAuNDktMC45NzcsMC41Ny0yLjA4NiwwLjIyNy0zLjEyNHMtMS4wNzItMS44NzgtMi4wNDktMi4zNjhjLTIuMDE3LTEuMDExLTQuNDgtMC4xOTQtNS40OTEsMS44MjImIzEwOyYjOTtjLTAuNzc2LDEuNTQ4LTAuNDkxLDMuNDI2LDAuNzA4LDQuNjczbDAuNjk0LDAuNzJsLTEuNDQsMS4zODdsLTAuNjkzLTAuNzIxYy0xLjc4OC0xLjg1Ni0yLjIxMy00LjY1Mi0xLjA1Ny02Ljk1NyYjMTA7JiM5O2MxLjUwNy0zLjAwMiw1LjE3Ni00LjIxOSw4LjE3Ni0yLjcxNGMzLjAwMiwxLjUwNiw0LjIyLDUuMTc0LDIuNzE0LDguMTc2Yy0wLjc0NywxLjQ4OS0yLjAzMywyLjU4My0zLjYyMiwzLjA4MUwyNS4xMTIsMTUuMDUxeiIgZmlsbD0iI0M3NEY0RSIvPiYjeGE7PHBhdGggZD0iTTcuMjEsMjguODU4Yy0yLjU4Mi0wLjA5Mi00LjgzNy0xLjgxMS01LjYxMS00LjI3N2MtMS4wMDgtMy4yMTMsMC43ODYtNi42NDYsMy45OTktNy42NTQmIzEwOyYjOTtjMS41NTctMC40ODksMy4yMS0wLjM0Miw0LjY1NiwwLjQxM3MyLjUxMiwyLjAyOCwzLDMuNTg1YzAuNTc5LDEuODQ2LDAuMjY2LDMuODA5LTAuODYxLDUuMzg1bC0xLjYyNy0xLjE2NCYjMTA7JiM5O2MwLjc1OC0xLjA2MSwwLjk3LTIuMzgxLDAuNTgtMy42MjJjLTAuMzI5LTEuMDQ3LTEuMDQ1LTEuOTAzLTIuMDE4LTIuNDExcy0yLjA4NC0wLjYwNy0zLjEzMS0wLjI3NyYjMTA7JiM5O2MtMS4wNDcsMC4zMjgtMS45MDMsMS4wNDUtMi40MTEsMi4wMTdjLTAuNTA4LDAuOTczLTAuNjA2LDIuMDg1LTAuMjc4LDMuMTMyYzAuNTIxLDEuNjU4LDIuMDM3LDIuODE0LDMuNzc0LDIuODc2TDcuMjEsMjguODU4eiIgZmlsbD0iI0M3NEY0RSIvPiYjeGE7PHBhdGggZD0iTTExLjQ5Myw3LjI4Yy0wLjI1NiwwLTAuNTEzLTAuMDk4LTAuNzA4LTAuMjkzYy0wLjM5LTAuMzkxLTAuMzg5LTEuMDI0LDAuMDAxLTEuNDE1bDUuMjkxLTUuMjgmIzEwOyYjOTtjMC4zOTEtMC4zOSwxLjAyMy0wLjM5LDEuNDE0LDAuMDAxczAuMzg5LDEuMDI0LTAuMDAyLDEuNDE1bC01LjI5LDUuMjhDMTIuMDA0LDcuMTgzLDExLjc0OCw3LjI4LDExLjQ5Myw3LjI4eiIgZmlsbD0iI0M3NEY0RSIvPiYjeGE7PHBhdGggZD0iTTE1LjA4LDQzLjI5MmwtMS45MjgtMC41MzNjMC4yNzItMC45ODgtMC41MzYtMS44OTEtMS45ODktMy40Yy0xLjc1NC0xLjgyMi00LjE1Ny00LjMxNi00LjY2Ny04LjQ1MSYjMTA7JiM5O2MtMC4xMTUtMC45My0wLjIzNC0xLjc2OC0wLjM0LTIuNTE0Yy0wLjM3OS0yLjY2MS0wLjU4OC00LjEyNywwLjAxNC01LjEyOWMwLjQ1Mi0wLjc1MywxLjI4NS0xLjI0MiwyLjIyOC0xLjMwOSYjMTA7JiM5O2MxLjExNC0wLjA4MywyLjIzMiwwLjQzMywyLjk5MywxLjM2OGMwLjQ1MiwwLjU1OCwwLjY4MSwxLjEyNiwwLjkyMywxLjcyOGMwLjEzMywwLjMzMiwwLjI3NywwLjY5MywwLjQ4NCwxLjA5OCYjMTA7JiM5O2MwLjU0MywxLjA2MSwxLjI5OSwxLjQzMiwxLjgyNCwxLjU1OGw1LjkyMy0xNy4zODRjMC4yMTUtMC43ODQsMC43Ni0xLjQ4MywxLjUxOC0xLjkxM2MwLjc1Ny0wLjQzLDEuNjM2LTAuNTM5LDIuNDc4LTAuMzA3JiMxMDsmIzk7YzAuODQsMC4yMzIsMS41MzksMC43NzcsMS45NjksMS41MzVjMC40MzEsMC43NTgsMC41MzksMS42MzgsMC4zMDgsMi40NzhsLTQuMjE4LDE0LjUyMWwtMS45MjEtMC41NThsNC4yMTQtMTQuNTA5JiMxMDsmIzk7YzAuMDg3LTAuMzEyLDAuMDQ1LTAuNjUyLTAuMTIyLTAuOTQ2Yy0wLjE2Ni0wLjI5My0wLjQzNy0wLjUwNC0wLjc2Mi0wLjU5NGMtMC4zMjUtMC4wODktMC42NjUtMC4wNDgtMC45NTgsMC4xMTkmIzEwOyYjOTtzLTAuNTA0LDAuNDM3LTAuNTk0LDAuNzYybC02LjM5NSwxOC43NzRsLTAuNjMzLDAuMDY5Yy0wLjExNiwwLjAxMS0yLjg4OCwwLjI3OS00LjQxMi0yLjY5M2MtMC4yMzgtMC40NjYtMC40MDctMC44ODMtMC41Ni0xLjI2NCYjMTA7JiM5O2MtMC4yMDgtMC41MTgtMC4zNTctMC44OTEtMC42MTktMS4yMTNjLTAuNTAzLTAuNjE5LTEuMDc3LTAuNjQ4LTEuMjk5LTAuNjM1Yy0wLjI5MiwwLjAyMS0wLjUzNywwLjE1LTAuNjU0LDAuMzQ2JiMxMDsmIzk7Yy0wLjIzNiwwLjM5MiwwLjAxMiwyLjEzMywwLjI1MSwzLjgxNmMwLjEwOCwwLjc1OCwwLjIyOSwxLjYwNSwwLjM0NSwyLjU0OWMwLjQyOSwzLjQ3NCwyLjM5MSw1LjUxMiw0LjEyMyw3LjMxMSYjMTA7JiM5O0MxNC4xOCwzOS42MDgsMTUuNjY5LDQxLjE1NSwxNS4wOCw0My4yOTJ6IiBmaWxsPSIjMzAzMjMyIi8+JiN4YTs8cGF0aCBkPSJNMjYuODk3LDQ1Ljc1OWwtMS45MjctMC41MzVjMC4xOTItMC42OTcsMC44NTQtMS40ODYsMS45NDgtMi43OTFjMi4zMTEtMi43NTUsNi4xNzgtNy4zNjUsNi45MDgtMTMuMzQzJiMxMDsmIzk7YzAuMTY5LTEuMzc1LTAuMzg3LTEuNTc1LTAuNjIzLTEuNjYxYy0wLjc5OS0wLjI5MS0xLjU5OSwwLjA4LTEuNjA1LDAuMDg0bC0wLjg4LTEuNzk2YzAuMTU3LTAuMDc3LDEuNTc5LTAuNzQzLDMuMTY1LTAuMTY5JiMxMDsmIzk7YzAuODU1LDAuMzA5LDIuMjQ0LDEuMjEzLDEuOTMsMy43ODVjLTAuODA0LDYuNTY2LTQuOTA4LDExLjQ2MS03LjM2MSwxNC4zODVDMjcuNzY4LDQ0LjUzMiwyNi45OTQsNDUuNDU2LDI2Ljg5Nyw0NS43NTl6IiBmaWxsPSIjMzAzMjMyIi8+JiN4YTs8cGF0aCBkPSJNMTQuNzA5LDcuNzE0Yy0wLjA0NSwwLTAuMDktMC4wMDMtMC4xMzYtMC4wMDlsLTMuMjE1LTAuNDM0Yy0wLjQ1Mi0wLjA2MS0wLjgwNi0wLjQyLTAuODU5LTAuODc0JiMxMDsmIzk7bC0wLjM3Ny0zLjE3N2MtMC4wNjUtMC41NDgsMC4zMjctMS4wNDUsMC44NzUtMS4xMTFjMC41NDQtMC4wNiwxLjA0NSwwLjMyNywxLjExMSwwLjg3NWwwLjI4NiwyLjQwN2wyLjQ0NiwwLjMzJiMxMDsmIzk7YzAuNTQ4LDAuMDc0LDAuOTMxLDAuNTc4LDAuODU3LDEuMTI1QzE1LjYzMSw3LjM1LDE1LjIwMiw3LjcxNCwxNC43MDksNy43MTR6IiBmaWxsPSIjQzc0RjRFIi8+JiN4YTs8cGF0aCBkPSJNMSwxNi45NjRjLTAuMjU2LDAtMC41MTItMC4wOTgtMC43MDgtMC4yOTRjLTAuMzkxLTAuMzkxLTAuMzktMS4wMjQsMC4wMDEtMS40MTRsNS4yOS01LjI4JiMxMDsmIzk7YzAuMzkxLTAuMzkxLDEuMDI0LTAuMzksMS40MTQsMC4wMDFjMC4zOTEsMC4zOTEsMC4zOSwxLjAyNC0wLjAwMSwxLjQxNGwtNS4yOSw1LjI4QzEuNTExLDE2Ljg2NiwxLjI1NiwxNi45NjQsMSwxNi45NjR6IiBmaWxsPSIjQzc0RjRFIi8+JiN4YTs8cGF0aCBkPSJNNi42NjYsMTQuODZjLTAuNSwwLTAuOTMxLTAuMzc0LTAuOTkyLTAuODgyTDUuMzg4LDExLjU3bC0yLjQ0Ny0wLjMzYy0wLjU0Ny0wLjA3NC0wLjkzMS0wLjU3OC0wLjg1Ny0xLjEyNSYjMTA7JiM5O2MwLjA3NC0wLjU0OCwwLjU4Mi0wLjkyOSwxLjEyNS0wLjg1N2wzLjIxNSwwLjQzNGMwLjQ1MiwwLjA2MSwwLjgwNiwwLjQyLDAuODU5LDAuODc0bDAuMzc3LDMuMTc3JiMxMDsmIzk7YzAuMDY1LDAuNTQ4LTAuMzI3LDEuMDQ1LTAuODc1LDEuMTExQzYuNzQ1LDE0Ljg1Nyw2LjcwNSwxNC44Niw2LjY2NiwxNC44NnoiIGZpbGw9IiNDNzRGNEUiLz4mI3hhOzwvc3ZnPg==;" parent="1" vertex="1">
          <mxGeometry x="460" y="520" width="70.44" height="90" as="geometry" />
        </mxCell>
        <mxCell id="NmdxITTfCorPuQKN51Er-35" value="" style="shape=image;imageAspect=0;aspect=fixed;verticalLabelPosition=bottom;verticalAlign=top;shadow=0;fillStyle=solid;strokeColor=default;strokeWidth=0;fontSize=13;fontColor=#FF0000;fillColor=none;opacity=90;image=data:image/svg+xml,PHN2ZyB4bWxuczp4bGluaz0iaHR0cDovL3d3dy53My5vcmcvMTk5OS94bGluayIgeG1sbnM9Imh0dHA6Ly93d3cudzMub3JnLzIwMDAvc3ZnIiB4bWw6c3BhY2U9InByZXNlcnZlIiB2aWV3Qm94PSIwIDAgNDIuMTgzIDQzLjIxMiIgaGVpZ2h0PSI0My4yMTJweCIgd2lkdGg9IjQyLjE4M3B4IiB5PSIwcHgiIHg9IjBweCIgaWQ9IuWbvuWxgl8xIiB2ZXJzaW9uPSIxLjEiPiYjeGE7PHBvbHlsaW5lIHBvaW50cz0iMjIuODc4LDQzLjIxMiAzOC45NzgsNDMuMjEyIDQxLjM3OCwzMC4zOSAzOC45NzgsMjIuMjEgMzYuMzI3LDIyLjczMSAzNC4xNzYsMjAuMDg0ICYjMTA7JiM5OzMxLjYxNiwyMC4wODQgMjcuNTY4LDE4LjgzOCAyNy4wNDUsOS4wMzYgMjUuMTI4LDcuMDIxIDIyLjg3OCw4LjM5IDIyLjg3OCwyMy4yNTMgMTkuMDk2LDI1LjExNiAxNy4xNywyNi44OSAxNy4xNywzMi4xNTIgJiMxMDsmIzk7MTguMjMyLDM1LjIwMiIgZmlsbD0iI0VCQ0FDMCIvPiYjeGE7PHJlY3QgaGVpZ2h0PSIyIiB3aWR0aD0iNi4wMzIiIGZpbGw9IiNEMjUxNTAiIHk9IjkuMDM2IiB4PSIxIi8+JiN4YTs8cGF0aCBkPSJNMy4yNjIsMTMuMjk4Yy0wLjI1NiwwLTAuNTEyLTAuMDk4LTAuNzA3LTAuMjkzbC0yLjI2Mi0yLjI2MmMtMC4zOTEtMC4zOTEtMC4zOTEtMS4wMjMsMC0xLjQxNGwyLjI2Mi0yLjI2MiYjMTA7JiM5O2MwLjM5MS0wLjM5MSwxLjAyMy0wLjM5MSwxLjQxNCwwczAuMzkxLDEuMDIzLDAsMS40MTRsLTEuNTU1LDEuNTU1bDEuNTU1LDEuNTU1YzAuMzkxLDAuMzkxLDAuMzkxLDEuMDI0LDAsMS40MTQmIzEwOyYjOTtDMy43NzMsMTMuMjAxLDMuNTE4LDEzLjI5OCwzLjI2MiwxMy4yOTh6IiBmaWxsPSIjRDI1MTUwIi8+JiN4YTs8cmVjdCBoZWlnaHQ9IjIiIHdpZHRoPSI2LjAzMSIgZmlsbD0iI0QyNTE1MCIgeT0iOS4wMzYiIHg9IjEzLjA2NCIvPiYjeGE7PHBhdGggZD0iTTE2LjgzNCwxMy4yOThjLTAuMjU2LDAtMC41MTItMC4wOTgtMC43MDctMC4yOTNjLTAuMzkxLTAuMzktMC4zOTEtMS4wMjMsMC0xLjQxNGwxLjU1NS0xLjU1NWwtMS41NTUtMS41NTUmIzEwOyYjOTtjLTAuMzkxLTAuMzkxLTAuMzkxLTEuMDIzLDAtMS40MTRzMS4wMjMtMC4zOTEsMS40MTQsMGwyLjI2MiwyLjI2MmMwLjM5MSwwLjM5MSwwLjM5MSwxLjAyMywwLDEuNDE0bC0yLjI2MiwyLjI2MiYjMTA7JiM5O0MxNy4zNDYsMTMuMjAxLDE3LjA5LDEzLjI5OCwxNi44MzQsMTMuMjk4eiIgZmlsbD0iI0QyNTE1MCIvPiYjeGE7PHJlY3QgaGVpZ2h0PSI2LjAzMiIgd2lkdGg9IjIiIGZpbGw9IiNEMjUxNTAiIHk9IjAuOTg4IiB4PSI5LjA0OCIvPiYjeGE7PHBhdGggZD0iTTEyLjMxLDQuMjVjLTAuMjU2LDAtMC41MTItMC4wOTgtMC43MDctMC4yOTNsLTEuNTU1LTEuNTU1TDguNDkzLDMuOTU4Yy0wLjM5MSwwLjM5MS0xLjAyMywwLjM5MS0xLjQxNCwwJiMxMDsmIzk7Yy0wLjM5MS0wLjM5LTAuMzkxLTEuMDIzLDAtMS40MTRsMi4yNjItMi4yNjJjMC4zNzUtMC4zNzUsMS4wMzktMC4zNzUsMS40MTQsMGwyLjI2MiwyLjI2MmMwLjM5MSwwLjM5MSwwLjM5MSwxLjAyNCwwLDEuNDE0JiMxMDsmIzk7QzEyLjgyMSw0LjE1MywxMi41NjUsNC4yNSwxMi4zMSw0LjI1eiIgZmlsbD0iI0QyNTE1MCIvPiYjeGE7PHJlY3QgaGVpZ2h0PSI2LjAzMiIgd2lkdGg9IjIiIGZpbGw9IiNEMjUxNTAiIHk9IjEzLjA1MiIgeD0iOS4wNDgiLz4mI3hhOzxwYXRoIGQ9Ik0xMC4wNDgsMjAuMDg0Yy0wLjI1NiwwLTAuNTEyLTAuMDk4LTAuNzA3LTAuMjkzbC0yLjI2Mi0yLjI2MmMtMC4zOTEtMC4zOTEtMC4zOTEtMS4wMjMsMC0xLjQxNCYjMTA7JiM5O3MxLjAyMy0wLjM5MSwxLjQxNCwwbDEuNTU1LDEuNTU1bDEuNTU1LTEuNTU1YzAuMzkxLTAuMzkxLDEuMDIzLTAuMzkxLDEuNDE0LDBzMC4zOTEsMS4wMjMsMCwxLjQxNGwtMi4yNjIsMi4yNjImIzEwOyYjOTtDMTAuNTYsMTkuOTg2LDEwLjMwNCwyMC4wODQsMTAuMDQ4LDIwLjA4NHoiIGZpbGw9IiNEMjUxNTAiLz4mI3hhOzxwYXRoIGQ9Ik0zMi45MTQsMjUuODdoLTJ2LTQuNTI0YzAtMC42OTYtMC41NjYtMS4yNjItMS4yNjMtMS4yNjJjLTAuNjk1LDAtMS4yNjIsMC41NjYtMS4yNjIsMS4yNjJWMjIuMWgtMnYtMC43NTQmIzEwOyYjOTtjMC0xLjc5OSwxLjQ2My0zLjI2MiwzLjI2Mi0zLjI2MnMzLjI2MywxLjQ2MywzLjI2MywzLjI2MlYyNS44N3oiIGZpbGw9IiMzMTMyMzIiLz4mI3hhOzxwYXRoIGQ9Ik0zNy40MzgsMjYuNjI0aC0yVjIyLjFjMC0wLjY5Ni0wLjU2Ni0xLjI2Mi0xLjI2Mi0xLjI2MnMtMS4yNjIsMC41NjYtMS4yNjIsMS4yNjJ2My43N2gtMlYyMi4xJiMxMDsmIzk7YzAtMS43OTksMS40NjMtMy4yNjIsMy4yNjItMy4yNjJzMy4yNjIsMS40NjMsMy4yNjIsMy4yNjJWMjYuNjI0eiIgZmlsbD0iIzMxMzIzMiIvPiYjeGE7PHBhdGggZD0iTTIzLjg2NiwzMS4xNDdoLTJWOS4yODJjMC0xLjc5OCwxLjQ2My0zLjI2MiwzLjI2Mi0zLjI2MnMzLjI2MiwxLjQ2MywzLjI2MiwzLjI2MlYyNS44N2gtMlY5LjI4MiYjMTA7JiM5O2MwLTAuNjk2LTAuNTY2LTEuMjYyLTEuMjYyLTEuMjYycy0xLjI2MiwwLjU2Ni0xLjI2MiwxLjI2MlYzMS4xNDd6IiBmaWxsPSIjMzEzMjMyIi8+JiN4YTs8cGF0aCBkPSJNMjMuODY2LDQzLjIxMmgtMmMwLTAuNjM5LTAuODM0LTEuNzYzLTEuNzE3LTIuOTUzYy0xLjUwOC0yLjAzMi0zLjU3My00LjgxNS0zLjkzNC04LjM4MiYjMTA7JiM5O2MtMC4wOTItMC45MDMtMC4xMjUtMi4yNTQtMC4wOTktNC4wMTVjMC4wMy0xLjk4OSwxLjM5Mi0zLjc0MiwzLjMxMS00LjI2MmwzLjMwMi0wLjg5NWwwLjUyMywxLjkzbC0zLjMwMiwwLjg5NSYjMTA7JiM5O2MtMS4wNjMsMC4yODktMS44MTcsMS4yNi0xLjgzNCwyLjM2MWMtMC4wMjQsMS42NiwwLjAwNiwyLjk2OSwwLjA4OSwzLjc4M2MwLjMwNSwzLjAyLDIuMTA0LDUuNDQ0LDMuNTUsNy4zOTMmIzEwOyYjOTtDMjIuOTM1LDQwLjY1NywyMy44NjYsNDEuOTEyLDIzLjg2Niw0My4yMTJ6IiBmaWxsPSIjMzEzMjMyIi8+JiN4YTs8cGF0aCBkPSJNMzkuNjk5LDQzLjIxMmgtMmMwLTAuNTk4LDAuMjQ4LTEuNDMyLDAuNjI0LTIuNjk0YzAuOTUzLTMuMjA4LDIuNzI5LTkuMTgxLDEuMzUzLTE1LjkzMyYjMTA7JiM5O2MtMC4yOTItMS40MjktMC43Ny0xLjQ2Ni0xLjA1NS0xLjQ4OGMtMC44NDUtMC4wNzYtMS41MTEsMC40OTctMS41MTgsMC41MDNsLTEuMzMyLTEuNDkxYzAuMTMxLTAuMTE2LDEuMzQyLTEuMTMsMy4wMDUtMS4wMDUmIzEwOyYjOTtjMS41MDMsMC4xMTcsMi40NjUsMS4xNTQsMi44NTgsMy4wODNjMS40NzgsNy4yNDItMC4zOTEsMTMuNTI2LTEuMzk1LDE2LjkwMkMzOS45NzQsNDEuOTgxLDM5LjY5OSw0Mi45MDUsMzkuNjk5LDQzLjIxMnoiIGZpbGw9IiMzMTMyMzIiLz4mI3hhOzwvc3ZnPg==;" parent="1" vertex="1">
          <mxGeometry x="541.04" y="520" width="87.93" height="90" as="geometry" />
        </mxCell>
        <mxCell id="NmdxITTfCorPuQKN51Er-36" value="&lt;b&gt;&lt;font style=&quot;font-size: 14px;&quot; color=&quot;#000000&quot;&gt;支持各种手势，拖动按键，自定义布局&lt;/font&gt;&lt;/b&gt;" style="text;html=1;strokeColor=none;fillColor=none;align=left;verticalAlign=middle;whiteSpace=wrap;rounded=0;fontSize=13;fontColor=#FF0000;" parent="1" vertex="1">
          <mxGeometry x="460" y="620" width="240" height="30" as="geometry" />
        </mxCell>
        <mxCell id="NmdxITTfCorPuQKN51Er-37" value="&lt;b&gt;&lt;font style=&quot;font-size: 14px;&quot; color=&quot;#000000&quot;&gt;支持各种手势，拖动视角，&lt;/font&gt;&lt;/b&gt;&lt;b style=&quot;border-color: var(--border-color);&quot;&gt;&lt;font style=&quot;border-color: var(--border-color); font-size: 14px;&quot; color=&quot;#000000&quot;&gt;按键的&lt;/font&gt;&lt;/b&gt;&lt;b&gt;&lt;font style=&quot;font-size: 14px;&quot; color=&quot;#000000&quot;&gt;展现与隐藏&lt;/font&gt;&lt;/b&gt;" style="text;html=1;strokeColor=none;fillColor=none;align=left;verticalAlign=middle;whiteSpace=wrap;rounded=0;fontSize=13;fontColor=#FF0000;" parent="1" vertex="1">
          <mxGeometry x="460" y="650" width="330" height="30" as="geometry" />
        </mxCell>
        <mxCell id="NmdxITTfCorPuQKN51Er-38" value="" style="shape=image;imageAspect=0;aspect=fixed;verticalLabelPosition=bottom;verticalAlign=top;shadow=0;fillStyle=solid;strokeColor=default;strokeWidth=0;fontSize=14;fontColor=#000000;fillColor=none;opacity=90;image=data:image/svg+xml,PHN2ZyB4bWxucz0iaHR0cDovL3d3dy53My5vcmcvMjAwMC9zdmciIGlkPSJzdmc2IiB2ZXJzaW9uPSIxLjEiIHZpZXdCb3g9IjAgMCAzMiAzMiIgaGVpZ2h0PSI4MDBweCIgd2lkdGg9IjgwMHB4IiBmaWxsPSIjMDAwMDAwIj4mI3hhOyAgPGRlZnMgaWQ9ImRlZnMxMCIvPiYjeGE7ICAmI3hhOyAgPHRpdGxlIGlkPSJ0aXRsZTIiPndpZmk8L3RpdGxlPiYjeGE7ICA8cGF0aCBzdHlsZT0iZmlsbDojZmZmZmZmIiBpZD0icGF0aDQiIGQ9Im0gMjMuODIzNDI4LDIwLjQ0NzU0OCBjIC0xLjYzMzQxNiwwIC0yLjk1NzExOSwxLjMyMzcwNCAtMi45NTcxMTksMi45NTcxMjEgMCwxLjYzMzQxNyAxLjMyMzcwMywyLjk1NzEyIDIuOTU3MTIsMi45NTcxMjEgMS42MzM0MTYsMCAyLjk1NzEyMSwtMS4zMjM3MDQgMi45NTcxMjEsLTIuOTU3MTIxIDAsLTEuNjMzNDE3IC0xLjMyMzcwNSwtMi45NTcxMjEgLTIuOTU3MTIyLC0yLjk1NzEyMSB6IG0gMi45NTcxMjIsLTguMzc3OCAtMWUtNiw0LjE4ODkgYyAtNS41NzkwNzIsMCAtMTAuMTAyNDM0LDQuNTIzMzYyIC0xMC4xMDI0MzQsMTAuMTAyNDM0IGggLTQuMTg4OSBjIC0xMGUtNywtNy44OTI3MjUgNi4zOTg2MDksLTE0LjI5MTMzNCAxNC4yOTEzMzUsLTE0LjI5MTMzNCB6IE0gMjYuNzc5ODQyLDkuMTEzMzM0NSBDIDE3LjI1MzcsOS4xMTMzMzQ0IDkuNTMxMzg3MSwxNi44MzU2NDcgOS41MzEzODcxLDI2LjM2MTc5IEggNS4yMTk0NDk5IGMgMCwtMTEuOTA3Njc5IDkuNjUyNzE0MSwtMjEuNTYwMzkyMSAyMS41NjAzOTMxLC0yMS41NjAzOTIzIHoiLz4mI3hhOyAgPG1ldGFkYXRhIGlkPSJtZXRhZGF0YTIxNyI+JiN4YTsgICAgJiN4YTsgICAgICAmI3hhOyAgICAgICAgd2lmaSYjeGE7ICAgICAgJiN4YTsgICAgJiN4YTsgIDwvbWV0YWRhdGE+JiN4YTs8L3N2Zz4=;" parent="1" vertex="1">
          <mxGeometry x="570" y="395" width="30" height="30" as="geometry" />
        </mxCell>
        <mxCell id="NmdxITTfCorPuQKN51Er-39" value="" style="endArrow=classic;startArrow=none;html=1;rounded=0;fontSize=14;fontColor=#000000;exitX=0.833;exitY=0.008;exitDx=0;exitDy=0;exitPerimeter=0;entryX=0.333;entryY=0.5;entryDx=0;entryDy=0;entryPerimeter=0;dashed=1;endFill=1;startFill=0;" parent="1" source="EUpulSCkN2NA8e2vZoBk-17" target="NmdxITTfCorPuQKN51Er-14" edge="1">
          <mxGeometry width="50" height="50" relative="1" as="geometry">
            <mxPoint x="470" y="510" as="sourcePoint" />
            <mxPoint x="520" y="460" as="targetPoint" />
          </mxGeometry>
        </mxCell>
        <mxCell id="NmdxITTfCorPuQKN51Er-40" value="" style="endArrow=none;startArrow=classic;html=1;rounded=0;fontSize=14;fontColor=#000000;entryX=0.333;entryY=0.5;entryDx=0;entryDy=0;entryPerimeter=0;dashed=1;startFill=1;endFill=0;" parent="1" source="NmdxITTfCorPuQKN51Er-14" edge="1">
          <mxGeometry width="50" height="50" relative="1" as="geometry">
            <mxPoint x="623.3299999999999" y="249.99999999999994" as="sourcePoint" />
            <mxPoint x="790" y="119.68" as="targetPoint" />
          </mxGeometry>
        </mxCell>
        <mxCell id="NmdxITTfCorPuQKN51Er-41" value="&lt;b&gt;×&lt;/b&gt;" style="rounded=0;whiteSpace=wrap;html=1;shadow=0;fillStyle=solid;strokeColor=#001DBC;strokeWidth=0;fontSize=13;fillColor=#FF0000;fontColor=#ffffff;opacity=90;" parent="1" vertex="1">
          <mxGeometry x="460" y="135" width="25" height="20" as="geometry" />
        </mxCell>
        <mxCell id="f7n59Fv8udrYJGsw1ITA-1" value="" style="endArrow=classic;startArrow=none;html=1;rounded=0;fontSize=14;fontColor=#000000;exitX=0.25;exitY=0;exitDx=0;exitDy=0;dashed=1;endFill=1;startFill=0;entryX=0.517;entryY=0.2;entryDx=0;entryDy=0;entryPerimeter=0;" parent="1" source="NmdxITTfCorPuQKN51Er-14" target="NmdxITTfCorPuQKN51Er-21" edge="1">
          <mxGeometry width="50" height="50" relative="1" as="geometry">
            <mxPoint x="462.29999999999995" y="400.31999999999994" as="sourcePoint" />
            <mxPoint x="628.97" y="270" as="targetPoint" />
          </mxGeometry>
        </mxCell>
      </root>
    </mxGraphModel>
  </diagram>
</mxfile>
